<svg xmlns="http://www.w3.org/2000/svg" version="1.1" xmlns:xlink="http://www.w3.org/1999/xlink" xmlns:svgjs="http://svgjs.com/svgjs" width="1440" height="560" preserveAspectRatio="none" viewBox="0 0 1440 560"><g mask="url(&quot;#SvgjsMask1028&quot;)" fill="none"><rect width="1440" height="560" x="0" y="0" fill="url(#SvgjsLinearGradient1029)"></rect><path d="M1440 0L1269.97 0L1440 96.92z" fill="rgba(255, 255, 255, .1)"></path><path d="M1269.97 0L1440 96.92L1440 343.85L705.0400000000001 0z" fill="rgba(255, 255, 255, .075)"></path><path d="M705.0400000000001 0L1440 343.85L1440 459.67L576.22 0z" fill="rgba(255, 255, 255, .05)"></path><path d="M576.22 0L1440 459.67L1440 480.15000000000003L363.11 0z" fill="rgba(255, 255, 255, .025)"></path><path d="M0 560L136.98 560L0 429.26z" fill="rgba(0, 0, 0, .1)"></path><path d="M0 429.26L136.98 560L711.5500000000001 560L0 416.7z" fill="rgba(0, 0, 0, .075)"></path><path d="M0 416.7L711.5500000000001 560L778.0300000000001 560L0 346.96999999999997z" fill="rgba(0, 0, 0, .05)"></path><path d="M0 346.96999999999997L778.0300000000001 560L1028.77 560L0 180.31999999999996z" fill="rgba(0, 0, 0, .025)"></path></g><defs><mask id="SvgjsMask1028"><rect width="1440" height="560" fill="#ffffff"></rect></mask><linearGradient x1="84.72%" y1="139.29%" x2="15.28%" y2="-39.29%" gradientUnits="userSpaceOnUse" id="SvgjsLinearGradient1029"><stop stop-color="#0e2a47" offset="0"></stop><stop stop-color="#00459e" offset="1"></stop></linearGradient></defs></svg>